<?xml version="1.0"?>
<svg width="20" height="19" xmlns="http://www.w3.org/2000/svg" xmlns:svg="http://www.w3.org/2000/svg">
 <g class="layer">
  <title>Layer 1</title>
  <path clip-rule="evenodd" d="m14.1,0c-1.31,0 -2.14,0.16 -3.11,0.63c-0.35,0.17 -0.69,0.38 -1,0.63c-0.3,-0.24 -0.62,-0.44 -0.96,-0.6c-0.98,-0.49 -1.86,-0.66 -3.12,-0.66c-3.37,0 -5.81,2.79 -5.81,6.41c0,2.73 1.52,5.37 4.36,7.93c1.49,1.34 3.4,2.66 4.76,3.37l0.78,0.4l0.78,-0.4c1.36,-0.71 3.27,-2.03 4.76,-3.37c2.84,-2.56 4.36,-5.2 4.36,-7.93c0,-3.58 -2.47,-6.4 -5.8,-6.41zm4,6.41c0,2.14 -1.27,4.34 -3.77,6.59c-1.36,1.22 -3.11,2.44 -4.33,3.09c-1.22,-0.65 -2.97,-1.87 -4.33,-3.09c-2.5,-2.25 -3.77,-4.45 -3.77,-6.59c0,-2.68 1.7,-4.61 4.01,-4.61c1,0 1.61,0.12 2.32,0.47c0.42,0.21 0.79,0.48 1.11,0.82l0.66,0.71l0.66,-0.72c0.33,-0.35 0.7,-0.63 1.12,-0.84c0.69,-0.33 1.27,-0.44 2.31,-0.44c2.29,0.01 4.01,1.97 4.01,4.61z" fill="#ff0000" fill-rule="evenodd" id="svg_1" transform="matrix(1 0 0 1 0 0)"/>
  <polyline fill="none" id="svg_5" points="2.0535714626312256,3.7566959857940674 6.3455040220942465,3.2495215152198966 " stroke-linecap="round" transform="matrix(1 0 0 1 0 0)"/>
  <path d="m10,16.44l-4.01,-2.25l-2.29,-2.06l-1.43,-2.49l-0.78,-2.34l0.29,-3.06l1.48,-1.98l2.01,-0.73l1.65,0.07l2,0.69l1.06,1.13l1.44,-1.31l1.91,-0.57c0,0 1.54,0.1 1.54,0.11c0,0.01 1.79,0.74 1.79,0.73c0,-0.01 1.02,0.21 1.02,1.32c0,1.11 0.55,-0.52 0.55,1.71c0,2.23 0.01,-0.35 0.01,1.88c0,2.23 -0.45,1.55 -0.45,2.66c0,1.11 -2.05,2.44 -4.45,4.62c-2.4,2.18 -3.34,1.88 -3.34,1.88z" fill="#ff0000" id="svg_9"/>
 </g>
</svg>